<svg width="20" height="10" viewBox="0 0 20 10" fill="none" xmlns="http://www.w3.org/2000/svg">
<path fill-rule="evenodd" clip-rule="evenodd" d="M5.27995 0.71934C5.4204 0.859965 5.49929 1.05059 5.49929 1.24934C5.49929 1.44809 5.4204 1.63871 5.27995 1.77934L2.80995 4.24934H19C19.1989 4.24934 19.3896 4.32836 19.5303 4.46901C19.6709 4.60966 19.75 4.80043 19.75 4.99934C19.75 5.19825 19.6709 5.38902 19.5303 5.52967C19.3896 5.67032 19.1989 5.74934 19 5.74934H2.80995L5.27995 8.21934C5.35364 8.288 5.41274 8.3708 5.45373 8.4628C5.49472 8.5548 5.51677 8.65411 5.51854 8.75482C5.52032 8.85552 5.50179 8.95555 5.46407 9.04894C5.42635 9.14233 5.37021 9.22716 5.29899 9.29838C5.22777 9.3696 5.14294 9.42574 5.04955 9.46346C4.95616 9.50118 4.85613 9.51971 4.75543 9.51793C4.65473 9.51615 4.55541 9.49411 4.46341 9.45312C4.37141 9.41213 4.28861 9.35303 4.21995 9.27934L0.46995 5.52934C0.3295 5.38871 0.25061 5.19809 0.25061 4.99934C0.25061 4.80059 0.3295 4.60997 0.46995 4.46934L4.21995 0.71934C4.36058 0.578889 4.5512 0.5 4.74995 0.5C4.9487 0.5 5.13933 0.578889 5.27995 0.71934Z" fill="#44454B"/>
</svg>
