<svg width="24" height="24" viewBox="0 0 24 24" fill="none" xmlns="http://www.w3.org/2000/svg">
<path fill-rule="evenodd" clip-rule="evenodd" d="M6.59091 3H9.45455C10.2984 3 11.1077 3.33865 11.7044 3.94144C12.3011 4.54424 12.6364 5.3618 12.6364 6.21429V7.82143C12.6364 8.70943 13.3491 9.42857 14.2273 9.42857H15.8182C16.6621 9.42857 17.4714 9.76722 18.0681 10.37C18.6648 10.9728 19 11.7904 19 12.6429V19.3929C19 20.28 18.2873 21 17.4091 21H6.59091C6.16897 21 5.76432 20.8307 5.46597 20.5293C5.16761 20.2279 5 19.8191 5 19.3929V4.60714C5 3.71914 5.71273 3 6.59091 3ZM11.5503 17.5971C11.6696 17.7175 11.8314 17.7851 12 17.7851C12.1686 17.7851 12.3304 17.7175 12.4497 17.5971L14.9952 15.0257C15.0577 14.9669 15.1078 14.8959 15.1426 14.817C15.1774 14.7382 15.1961 14.6531 15.1976 14.5667C15.1991 14.4804 15.1834 14.3947 15.1514 14.3146C15.1194 14.2346 15.0717 14.1619 15.0113 14.1008C14.9509 14.0398 14.8789 13.9917 14.7997 13.9593C14.7204 13.927 14.6355 13.9111 14.5501 13.9126C14.4647 13.9142 14.3804 13.9331 14.3023 13.9682C14.2243 14.0033 14.154 14.054 14.0958 14.1171L12.6364 15.5914V12C12.6364 11.8295 12.5693 11.666 12.45 11.5454C12.3306 11.4249 12.1688 11.3571 12 11.3571C11.8312 11.3571 11.6694 11.4249 11.55 11.5454C11.4307 11.666 11.3636 11.8295 11.3636 12V15.5914L9.90424 14.1171C9.78361 14.0036 9.62405 13.9418 9.45919 13.9447C9.29433 13.9476 9.13704 14.0151 9.02044 14.1329C8.90385 14.2507 8.83706 14.4096 8.83415 14.5761C8.83125 14.7427 8.89244 14.9038 9.00485 15.0257L11.5503 17.5971Z" fill="#4269F5"/>
<path d="M14.1021 5.95907C14.1036 4.87208 13.7122 3.82117 13 3C14.4419 3.37912 15.7572 4.1344 16.8114 5.18861C17.8656 6.24283 18.6209 7.55813 19 9C18.1788 8.28779 17.1279 7.89638 16.0409 7.89789H14.4252C14.3395 7.89789 14.2574 7.86384 14.1968 7.80324C14.1362 7.74264 14.1021 7.66045 14.1021 7.57475V5.95907Z" fill="#4269F5"/>
</svg>
