<svg width="24" height="24" viewBox="0 0 24 24" fill="none" xmlns="http://www.w3.org/2000/svg">
<path fill-rule="evenodd" clip-rule="evenodd" d="M11.69 19.933L11.693 19.934C11.89 20.02 12 20 12 20C12 20 12.11 20.02 12.308 19.934L12.31 19.933L12.316 19.93L12.334 19.922C12.4289 19.8779 12.5226 19.8312 12.615 19.782C12.801 19.686 13.061 19.542 13.372 19.349C13.992 18.965 14.817 18.383 15.646 17.584C17.302 15.988 19 13.493 19 10C19 9.08075 18.8189 8.1705 18.4672 7.32122C18.1154 6.47194 17.5998 5.70026 16.9497 5.05025C16.2997 4.40024 15.5281 3.88463 14.6788 3.53284C13.8295 3.18106 12.9193 3 12 3C11.0807 3 10.1705 3.18106 9.32122 3.53284C8.47194 3.88463 7.70026 4.40024 7.05025 5.05025C6.40024 5.70026 5.88463 6.47194 5.53284 7.32122C5.18106 8.1705 5 9.08075 5 10C5 13.492 6.698 15.988 8.355 17.584C9.04875 18.2503 9.8106 18.8419 10.628 19.349C10.9446 19.5456 11.2703 19.7271 11.604 19.893L11.666 19.922L11.684 19.93L11.69 19.933ZM12 12.25C12.5967 12.25 13.169 12.0129 13.591 11.591C14.0129 11.169 14.25 10.5967 14.25 10C14.25 9.40326 14.0129 8.83097 13.591 8.40901C13.169 7.98705 12.5967 7.75 12 7.75C11.4033 7.75 10.831 7.98705 10.409 8.40901C9.98705 8.83097 9.75 9.40326 9.75 10C9.75 10.5967 9.98705 11.169 10.409 11.591C10.831 12.0129 11.4033 12.25 12 12.25Z" fill="#A6A6A8"/>
</svg>
