<svg width="24" height="24" viewBox="0 0 24 24" fill="none" xmlns="http://www.w3.org/2000/svg">
<path d="M4 9.5V16.1684C4 16.7868 4.24082 17.3798 4.66947 17.8171C5.09812 18.2543 5.67951 18.5 6.28571 18.5H17.7143C18.3205 18.5 18.9019 18.2543 19.3305 17.8171C19.7592 17.3798 20 16.7868 20 16.1684V9.5L13.1977 13.7692C12.8375 13.9952 12.4229 14.1149 12 14.1149C11.5771 14.1149 11.1625 13.9952 10.8023 13.7692L4 9.5Z" fill="#A6A6A8"/>
<path d="M20 8.36215V8.24397C20 7.64883 19.7592 7.07807 19.3305 6.65724C18.9019 6.23642 18.3205 6 17.7143 6H6.28571C5.67951 6 5.09812 6.23642 4.66947 6.65724C4.24082 7.07807 4 7.64883 4 8.24397V8.36215L11.4011 12.8336C11.5812 12.9424 11.7885 13 12 13C12.2115 13 12.4188 12.9424 12.5989 12.8336L20 8.36215Z" fill="#A6A6A8"/>
</svg>
