<svg width="24" height="24" viewBox="0 0 24 24" fill="none" xmlns="http://www.w3.org/2000/svg">
<path fill-rule="evenodd" clip-rule="evenodd" d="M4 6.28571C4 5.67951 4.24082 5.09812 4.66947 4.66947C5.09812 4.24082 5.67951 4 6.28571 4H7.33105C7.98629 4 8.55771 4.44648 8.71695 5.0819L9.55886 8.45181C9.62708 8.72457 9.6133 9.0114 9.51924 9.27636C9.42518 9.54132 9.25503 9.77264 9.0301 9.94133L8.04495 10.6804C7.9421 10.7573 7.92 10.8701 7.94895 10.9486C8.37896 12.118 9.05798 13.18 9.93901 14.061C10.82 14.942 11.882 15.621 13.0514 16.051C13.1299 16.08 13.2419 16.0579 13.3196 15.955L14.0587 14.9699C14.2274 14.745 14.4587 14.5748 14.7236 14.4808C14.9886 14.3867 15.2754 14.3729 15.5482 14.4411L18.9181 15.283C19.5535 15.4423 20 16.0137 20 16.6697V17.7143C20 18.3205 19.7592 18.9019 19.3305 19.3305C18.9019 19.7592 18.3205 20 17.7143 20H16C9.37295 20 4 14.627 4 8V6.28571Z" fill="#A6A6A8"/>
</svg>
