<svg width="18" height="15" viewBox="0 0 18 15" fill="none" xmlns="http://www.w3.org/2000/svg">
<path fill-rule="evenodd" clip-rule="evenodd" d="M13.3185 14.4945C14.3171 14.9316 14.6915 14.0157 14.6915 14.0157L17.3334 0.734788C17.3126 -0.16032 16.1061 0.380909 16.1061 0.380909L1.31552 6.1887C1.31552 6.1887 0.60824 6.4385 0.670648 6.87565C0.733055 7.31279 1.29472 7.52096 1.29472 7.52096L5.01836 8.76994C5.01836 8.76994 6.14169 12.4545 6.37052 13.1622C6.57855 13.8492 6.76577 13.87 6.76577 13.87C6.97379 13.9532 7.16101 13.8075 7.16101 13.8075L9.5741 11.6218L13.3185 14.4945ZM13.9636 3.087C13.9636 3.087 14.4836 2.77475 14.4628 3.087C14.4628 3.087 14.546 3.12863 14.2756 3.42006C14.026 3.66986 8.13887 8.95724 7.34837 9.665C7.28597 9.70664 7.24436 9.76909 7.24436 9.85235L7.01553 11.8091C6.97393 12.0173 6.7035 12.0381 6.64109 11.8507L5.66337 8.645C5.62177 8.5201 5.66337 8.37438 5.78819 8.29112L13.9636 3.087Z" fill="#4269F5"/>
</svg>
