<svg width="20" height="20" viewBox="0 0 20 20" fill="none" xmlns="http://www.w3.org/2000/svg">
<path d="M18.3334 9.78472C18.3334 14.2686 14.6706 17.9034 10.1516 17.9034C8.71693 17.9034 7.36916 17.5368 6.19656 16.8932L1.66675 18.3327L3.1436 13.9768C2.3986 12.7534 1.96953 11.3186 1.96953 9.78472C1.96953 5.30083 5.63267 1.66602 10.1516 1.66602C14.671 1.66602 18.3334 5.30083 18.3334 9.78472ZM10.1516 2.95898C6.35823 2.95898 3.27267 6.02102 3.27267 9.78472C3.27267 11.2782 3.75953 12.6614 4.58304 13.7866L3.7236 16.3216L6.36712 15.4814C7.45323 16.1945 8.75434 16.6105 10.1517 16.6105C13.9445 16.6105 17.0306 13.5488 17.0306 9.78509C17.0306 6.02139 13.9447 2.95898 10.1516 2.95898ZM14.2832 11.6545C14.2327 11.5718 14.0992 11.5218 13.8988 11.4223C13.698 11.3229 12.7117 10.8412 12.5284 10.7751C12.3445 10.7088 12.2105 10.6755 12.0769 10.8745C11.9434 11.0738 11.559 11.5218 11.4417 11.6545C11.3247 11.7877 11.2079 11.8043 11.0071 11.7047C10.8067 11.6053 10.1606 11.3949 9.39453 10.7171C8.79842 10.1897 8.39582 9.53861 8.27879 9.33916C8.16193 9.14009 8.26656 9.0325 8.36675 8.93342C8.45712 8.84416 8.56749 8.70102 8.66767 8.5849C8.76823 8.46861 8.80156 8.38583 8.86804 8.25287C8.93527 8.12009 8.90175 8.00398 8.85138 7.90416C8.80138 7.80472 8.3999 6.82546 8.23286 6.42694C8.06582 6.02879 7.89897 6.09509 7.78175 6.09509C7.6649 6.09509 7.53101 6.07842 7.3973 6.07842C7.2636 6.07842 7.04619 6.12824 6.8623 6.32731C6.6786 6.52657 6.16064 7.00805 6.16064 7.98713C6.16064 8.96639 6.87897 9.9125 6.97953 10.0451C7.07971 10.1777 8.36656 12.2525 10.4055 13.0493C12.4445 13.8458 12.4445 13.5801 12.8123 13.5468C13.1797 13.5136 13.9986 13.0655 14.1664 12.601C14.333 12.1358 14.333 11.7375 14.2832 11.6545Z" fill="#4269F5"/>
</svg>
