<svg width="25" height="24" viewBox="0 0 25 24" fill="none" xmlns="http://www.w3.org/2000/svg">
<path fill-rule="evenodd" clip-rule="evenodd" d="M8.04892 6C8.04892 4.80653 8.52303 3.66193 9.36694 2.81802C10.2109 1.97411 11.3555 1.5 12.5489 1.5C13.7424 1.5 14.887 1.97411 15.7309 2.81802C16.5748 3.66193 17.0489 4.80653 17.0489 6C17.0489 7.19347 16.5748 8.33807 15.7309 9.18198C14.887 10.0259 13.7424 10.5 12.5489 10.5C11.3555 10.5 10.2109 10.0259 9.36694 9.18198C8.52303 8.33807 8.04892 7.19347 8.04892 6ZM4.29992 20.105C4.33364 17.9395 5.21757 15.8741 6.76089 14.3546C8.3042 12.8351 10.3831 11.9834 12.5489 11.9834C14.7147 11.9834 16.7936 12.8351 18.337 14.3546C19.8803 15.8741 20.7642 17.9395 20.7979 20.105C20.8005 20.2508 20.7606 20.3942 20.683 20.5176C20.6053 20.641 20.4934 20.7392 20.3609 20.8C17.9101 21.9237 15.2451 22.5037 12.5489 22.5C9.76292 22.5 7.11592 21.892 4.73692 20.8C4.60441 20.7392 4.4925 20.641 4.41489 20.5176C4.33727 20.3942 4.29732 20.2508 4.29992 20.105Z" fill="#090A12"/>
</svg>
