<svg width="41" height="32" viewBox="0 0 41 32" fill="none" xmlns="http://www.w3.org/2000/svg">
<path d="M0.5 32V21.1934C0.5 17.2066 1.20361 13.5694 2.61082 10.282C4.01803 6.92459 6.48065 3.49727 9.99868 0L16.2256 5.03607C13.763 7.48415 12.004 9.79235 10.9485 11.9607C9.89314 14.129 9.36543 16.4721 9.36543 18.9902L5.6715 15.1082H17.5976V32H0.5ZM23.4024 32V21.1934C23.4024 17.2066 24.106 13.5694 25.5132 10.282C26.9204 6.92459 29.383 3.49727 32.9011 0L39.128 5.03607C36.6653 7.48415 34.9063 9.79235 33.8509 11.9607C32.7955 14.129 32.2678 16.4721 32.2678 18.9902L28.5739 15.1082H40.5V32H23.4024Z" fill="#A6A6A8"/>
</svg>
