<svg width="25" height="24" viewBox="0 0 25 24" fill="none" xmlns="http://www.w3.org/2000/svg">
<path fill-rule="evenodd" clip-rule="evenodd" d="M2.75 12C2.75 6.615 7.115 2.25 12.5 2.25C17.885 2.25 22.25 6.615 22.25 12C22.25 17.385 17.885 21.75 12.5 21.75C7.115 21.75 2.75 17.385 2.75 12ZM16.11 10.186C16.17 10.1061 16.2134 10.0149 16.2377 9.91795C16.262 9.82098 16.2666 9.72014 16.2514 9.62135C16.2361 9.52257 16.2012 9.42782 16.1489 9.3427C16.0965 9.25757 16.0276 9.18378 15.9463 9.12565C15.8649 9.06753 15.7728 9.02624 15.6753 9.00423C15.5778 8.98221 15.4769 8.97991 15.3785 8.99746C15.2801 9.01501 15.1862 9.05205 15.1023 9.10641C15.0184 9.16077 14.9462 9.23135 14.89 9.314L11.654 13.844L10.03 12.22C9.88783 12.0875 9.69978 12.0154 9.50548 12.0188C9.31118 12.0223 9.12579 12.101 8.98838 12.2384C8.85097 12.3758 8.77225 12.5612 8.76882 12.7555C8.7654 12.9498 8.83752 13.1378 8.97 13.28L11.22 15.53C11.297 15.6069 11.3898 15.6662 11.492 15.7036C11.5942 15.7411 11.7033 15.7559 11.8118 15.7469C11.9202 15.738 12.0255 15.7055 12.1201 15.6519C12.2148 15.5982 12.2967 15.5245 12.36 15.436L16.11 10.186Z" fill="#090A12"/>
</svg>
