<svg width="25" height="24" viewBox="0 0 25 24" fill="none" xmlns="http://www.w3.org/2000/svg">
<path fill-rule="evenodd" clip-rule="evenodd" d="M8.75 6.75C8.75 5.75544 9.14509 4.80161 9.84835 4.09835C10.5516 3.39509 11.5054 3 12.5 3C13.4946 3 14.4484 3.39509 15.1517 4.09835C15.8549 4.80161 16.25 5.75544 16.25 6.75C16.25 7.74456 15.8549 8.69839 15.1517 9.40165C14.4484 10.1049 13.4946 10.5 12.5 10.5C11.5054 10.5 10.5516 10.1049 9.84835 9.40165C9.14509 8.69839 8.75 7.74456 8.75 6.75ZM16.25 9.75C16.25 8.95435 16.5661 8.19129 17.1287 7.62868C17.6913 7.06607 18.4544 6.75 19.25 6.75C20.0456 6.75 20.8087 7.06607 21.3713 7.62868C21.9339 8.19129 22.25 8.95435 22.25 9.75C22.25 10.5456 21.9339 11.3087 21.3713 11.8713C20.8087 12.4339 20.0456 12.75 19.25 12.75C18.4544 12.75 17.6913 12.4339 17.1287 11.8713C16.5661 11.3087 16.25 10.5456 16.25 9.75ZM2.75 9.75C2.75 8.95435 3.06607 8.19129 3.62868 7.62868C4.19129 7.06607 4.95435 6.75 5.75 6.75C6.54565 6.75 7.30871 7.06607 7.87132 7.62868C8.43393 8.19129 8.75 8.95435 8.75 9.75C8.75 10.5456 8.43393 11.3087 7.87132 11.8713C7.30871 12.4339 6.54565 12.75 5.75 12.75C4.95435 12.75 4.19129 12.4339 3.62868 11.8713C3.06607 11.3087 2.75 10.5456 2.75 9.75ZM6.81 15.117C7.41995 14.161 8.26108 13.3743 9.25562 12.8294C10.2502 12.2846 11.366 11.9994 12.5 12C13.4498 11.9991 14.3891 12.1989 15.2564 12.5862C16.1237 12.9734 16.8994 13.5395 17.5327 14.2474C18.1661 14.9552 18.6428 15.7888 18.9317 16.6936C19.2205 17.5985 19.315 18.5541 19.209 19.498C19.196 19.6153 19.1556 19.7278 19.091 19.8265C19.0263 19.9252 18.9393 20.0073 18.837 20.066C16.9086 21.1725 14.7233 21.7532 12.5 21.75C10.195 21.75 8.03 21.138 6.163 20.066C6.06069 20.0073 5.97368 19.9252 5.90904 19.8265C5.84441 19.7278 5.80396 19.6153 5.791 19.498C5.62305 17.9646 5.98246 16.4198 6.81 15.118V15.117Z" fill="black"/>
<path d="M5.58208 14.2539C4.59584 15.7763 4.13633 17.5802 4.27408 19.3889C3.67359 19.2979 3.08299 19.1505 2.51008 18.9489L2.39508 18.9089C2.29248 18.8725 2.20263 18.8071 2.13643 18.7207C2.07023 18.6342 2.03051 18.5305 2.02208 18.4219L2.01208 18.3009C1.97169 17.7989 2.03284 17.2938 2.19188 16.816C2.35093 16.3381 2.60462 15.8971 2.9378 15.5194C3.27099 15.1417 3.67685 14.835 4.13116 14.6176C4.58547 14.4001 5.07893 14.2765 5.58208 14.2539ZM20.7261 19.3889C20.8638 17.5802 20.4043 15.7763 19.4181 14.2539C19.9212 14.2765 20.4147 14.4001 20.869 14.6176C21.3233 14.835 21.7292 15.1417 22.0624 15.5194C22.3955 15.8971 22.6492 16.3381 22.8083 16.816C22.9673 17.2938 23.0285 17.7989 22.9881 18.3009L22.9781 18.4219C22.9695 18.5303 22.9297 18.6338 22.8635 18.7201C22.7973 18.8063 22.7075 18.8716 22.6051 18.9079L22.4901 18.9479C21.9231 19.1479 21.3341 19.2969 20.7261 19.3889Z" fill="black"/>
</svg>
