<svg width="21" height="12" viewBox="0 0 21 12" fill="none" xmlns="http://www.w3.org/2000/svg">
<path d="M2.625 0C1.92881 0 1.26113 0.237053 0.768845 0.65901C0.276562 1.08097 0 1.65326 0 2.25V9.75C0 10.3467 0.276562 10.919 0.768845 11.341C1.26113 11.7629 1.92881 12 2.625 12H11.375C12.0712 12 12.7389 11.7629 13.2312 11.341C13.7234 10.919 14 10.3467 14 9.75V2.25C14 1.65326 13.7234 1.08097 13.2312 0.65901C12.7389 0.237053 12.0712 0 11.375 0H2.625ZM21 0.75C20.9998 0.60176 20.9484 0.456883 20.8523 0.333668C20.7561 0.210452 20.6195 0.114424 20.4597 0.057713C20.3 0.00100166 20.1241 -0.0138497 19.9545 0.0150347C19.7849 0.0439191 19.629 0.115243 19.5067 0.22L16.0067 3.22C15.8425 3.36052 15.7502 3.55115 15.75 3.75V8.25C15.75 8.449 15.8422 8.64 16.0067 8.78L19.5067 11.78C19.629 11.8848 19.7849 11.9561 19.9545 11.985C20.1241 12.0138 20.3 11.999 20.4597 11.9423C20.6195 11.8856 20.7561 11.7895 20.8523 11.6663C20.9484 11.5431 20.9998 11.3982 21 11.25V0.75Z" fill="white"/>
</svg>
