<svg width="20" height="10" viewBox="0 0 20 10" fill="none" xmlns="http://www.w3.org/2000/svg">
<path fill-rule="evenodd" clip-rule="evenodd" d="M14.7207 0.71934C14.5802 0.859965 14.5013 1.05059 14.5013 1.24934C14.5013 1.44809 14.5802 1.63871 14.7207 1.77934L17.1907 4.24934H1.00066C0.801748 4.24934 0.610981 4.32836 0.470329 4.46901C0.329678 4.60966 0.25066 4.80043 0.25066 4.99934C0.25066 5.19825 0.329678 5.38902 0.470329 5.52967C0.610981 5.67032 0.801748 5.74934 1.00066 5.74934H17.1907L14.7207 8.21934C14.647 8.288 14.5879 8.3708 14.5469 8.4628C14.5059 8.5548 14.4838 8.65411 14.4821 8.75482C14.4803 8.85552 14.4988 8.95555 14.5365 9.04894C14.5743 9.14233 14.6304 9.22716 14.7016 9.29838C14.7728 9.3696 14.8577 9.42574 14.9511 9.46346C15.0445 9.50118 15.1445 9.51971 15.2452 9.51793C15.3459 9.51615 15.4452 9.49411 15.5372 9.45312C15.6292 9.41213 15.712 9.35303 15.7807 9.27934L19.5307 5.52934C19.6711 5.38871 19.75 5.19809 19.75 4.99934C19.75 4.80059 19.6711 4.60997 19.5307 4.46934L15.7807 0.71934C15.64 0.578889 15.4494 0.5 15.2507 0.5C15.0519 0.5 14.8613 0.578889 14.7207 0.71934Z" fill="white"/>
</svg>
