<svg width="20" height="10" viewBox="0 0 20 10" fill="none" xmlns="http://www.w3.org/2000/svg">
<path fill-rule="evenodd" clip-rule="evenodd" d="M14.7207 0.720316C14.5802 0.860942 14.5013 1.05157 14.5013 1.25032C14.5013 1.44907 14.5802 1.63969 14.7207 1.78032L17.1907 4.25032H1.00066C0.801748 4.25032 0.610981 4.32933 0.470329 4.46999C0.329678 4.61064 0.25066 4.8014 0.25066 5.00032C0.25066 5.19923 0.329678 5.38999 0.470329 5.53065C0.610981 5.6713 0.801748 5.75032 1.00066 5.75032H17.1907L14.7207 8.22032C14.647 8.28898 14.5879 8.37178 14.5469 8.46378C14.5059 8.55578 14.4838 8.65509 14.4821 8.75579C14.4803 8.8565 14.4988 8.95652 14.5365 9.04991C14.5743 9.1433 14.6304 9.22814 14.7016 9.29935C14.7728 9.37057 14.8577 9.42672 14.9511 9.46444C15.0445 9.50216 15.1445 9.52068 15.2452 9.51891C15.3459 9.51713 15.4452 9.49509 15.5372 9.4541C15.6292 9.41311 15.712 9.354 15.7807 9.28032L19.5307 5.53032C19.6711 5.38969 19.75 5.19907 19.75 5.00032C19.75 4.80157 19.6711 4.61094 19.5307 4.47032L15.7807 0.720316C15.64 0.579866 15.4494 0.500977 15.2507 0.500977C15.0519 0.500977 14.8613 0.579866 14.7207 0.720316Z" fill="#090A12"/>
</svg>
