<svg width="16" height="16" viewBox="0 0 16 16" fill="none" xmlns="http://www.w3.org/2000/svg">
<path d="M2.25 12C2.44891 12 2.63968 11.921 2.78033 11.7803C2.92098 11.6397 3 11.4489 3 11.25C3 11.0511 2.92098 10.8603 2.78033 10.7197C2.63968 10.579 2.44891 10.5 2.25 10.5H0.75C0.551088 10.5 0.360322 10.579 0.21967 10.7197C0.0790175 10.8603 0 11.0511 0 11.25C0 11.4489 0.0790175 11.6397 0.21967 11.7803C0.360322 11.921 0.551088 12 0.75 12H2.25ZM15.25 12C15.4489 12 15.6397 11.921 15.7803 11.7803C15.921 11.6397 16 11.4489 16 11.25C16 11.0511 15.921 10.8603 15.7803 10.7197C15.6397 10.579 15.4489 10.5 15.25 10.5H9.75C9.55109 10.5 9.36032 10.579 9.21967 10.7197C9.07902 10.8603 9 11.0511 9 11.25C9 11.4489 9.07902 11.6397 9.21967 11.7803C9.36032 11.921 9.55109 12 9.75 12H15.25ZM7 5C7 5.19891 6.92098 5.38968 6.78033 5.53033C6.63968 5.67098 6.44891 5.75 6.25 5.75H0.75C0.551088 5.75 0.360322 5.67098 0.21967 5.53033C0.0790175 5.38968 0 5.19891 0 5C0 4.80109 0.0790175 4.61032 0.21967 4.46967C0.360322 4.32902 0.551088 4.25 0.75 4.25H6.25C6.44891 4.25 6.63968 4.32902 6.78033 4.46967C6.92098 4.61032 7 4.80109 7 5ZM15.25 5.75C15.4489 5.75 15.6397 5.67098 15.7803 5.53033C15.921 5.38968 16 5.19891 16 5C16 4.80109 15.921 4.61032 15.7803 4.46967C15.6397 4.32902 15.4489 4.25 15.25 4.25H13.75C13.5511 4.25 13.3603 4.32902 13.2197 4.46967C13.079 4.61032 13 4.80109 13 5C13 5.19891 13.079 5.38968 13.2197 5.53033C13.3603 5.67098 13.5511 5.75 13.75 5.75H15.25ZM12 5C12 4.46957 11.7893 3.96086 11.4142 3.58579C11.0391 3.21071 10.5304 3 10 3C9.46957 3 8.96086 3.21071 8.58579 3.58579C8.21071 3.96086 8 4.46957 8 5C8 5.53043 8.21071 6.03914 8.58579 6.41421C8.96086 6.78929 9.46957 7 10 7C10.5304 7 11.0391 6.78929 11.4142 6.41421C11.7893 6.03914 12 5.53043 12 5ZM8 11.25C8 10.7196 7.78929 10.2109 7.41421 9.83579C7.03914 9.46071 6.53043 9.25 6 9.25C5.46957 9.25 4.96086 9.46071 4.58579 9.83579C4.21071 10.2109 4 10.7196 4 11.25C4 11.7804 4.21071 12.2891 4.58579 12.6642C4.96086 13.0393 5.46957 13.25 6 13.25C6.53043 13.25 7.03914 13.0393 7.41421 12.6642C7.78929 12.2891 8 11.7804 8 11.25Z" fill="black"/>
</svg>
