<svg width="24" height="24" viewBox="0 0 24 24" fill="none" xmlns="http://www.w3.org/2000/svg">
<path fill-rule="evenodd" clip-rule="evenodd" d="M16.5 4.83615V5.05234C17.799 5.16547 19.0927 5.32814 20.378 5.53996C20.475 5.55597 20.5678 5.59002 20.6511 5.64018C20.7343 5.69034 20.8063 5.75563 20.8631 5.8323C20.9198 5.90898 20.9601 5.99554 20.9817 6.08706C21.0033 6.17858 21.0058 6.27325 20.989 6.36568C20.9722 6.4581 20.9364 6.54647 20.8838 6.62573C20.8311 6.705 20.7625 6.77361 20.682 6.82764C20.6015 6.88168 20.5106 6.92008 20.4145 6.94066C20.3184 6.96124 20.219 6.96359 20.122 6.94758L19.913 6.91425L18.908 19.3619C18.8501 20.0796 18.5098 20.75 17.9553 21.2391C17.4007 21.7282 16.6728 22 15.917 22H8.084C7.3282 22 6.60026 21.7282 6.04573 21.2391C5.4912 20.75 5.15095 20.0796 5.09301 19.3619L4.08701 6.91425L3.87801 6.94758C3.78096 6.96359 3.68155 6.96124 3.58546 6.94066C3.48937 6.92008 3.39847 6.88168 3.31796 6.82764C3.15537 6.71851 3.04495 6.55234 3.01101 6.36568C2.97706 6.17901 3.02236 5.98715 3.13694 5.8323C3.25153 5.67745 3.42601 5.57229 3.62201 5.53996C4.90727 5.32789 6.20099 5.16522 7.5 5.05234V4.83615C7.5 3.34662 8.713 2.07424 10.316 2.02566C11.4387 1.99145 12.5623 1.99145 13.685 2.02566C15.288 2.07424 16.5 3.34662 16.5 4.83615ZM10.364 3.45329C11.4547 3.42007 12.5463 3.42007 13.637 3.45329C14.39 3.47614 15 4.07996 15 4.83615V4.94377C13.0018 4.82819 10.9982 4.82819 9 4.94377V4.83615C9 4.07996 9.609 3.47614 10.364 3.45329ZM10.009 9.11521C10.0052 9.0214 9.98202 8.92924 9.94081 8.84396C9.8996 8.75869 9.84116 8.68198 9.76883 8.61822C9.69649 8.55445 9.61167 8.50489 9.51922 8.47234C9.42677 8.4398 9.32849 8.42491 9.23 8.42854C9.13151 8.43216 9.03473 8.45423 8.9452 8.49348C8.85566 8.53273 8.77512 8.58839 8.70817 8.65728C8.64122 8.72617 8.58917 8.80695 8.555 8.895C8.52082 8.98304 8.50519 9.07664 8.509 9.17044L8.856 17.7419C8.86369 17.9312 8.95004 18.1099 9.09603 18.2385C9.16832 18.3023 9.25308 18.3518 9.34547 18.3843C9.43786 18.4168 9.53608 18.4317 9.6345 18.4281C9.73293 18.4245 9.82964 18.4024 9.91912 18.3632C10.0086 18.324 10.0891 18.2683 10.156 18.1995C10.2229 18.1306 10.2749 18.0499 10.309 17.9619C10.3432 17.8739 10.3588 17.7804 10.355 17.6867L10.009 9.11521ZM15.489 9.17044C15.4963 9.07484 15.4834 8.97881 15.4509 8.88807C15.4185 8.79734 15.3672 8.71375 15.3001 8.64229C15.233 8.57084 15.1515 8.51297 15.0604 8.47215C14.9693 8.43132 14.8706 8.40837 14.77 8.40466C14.6694 8.40095 14.5691 8.41656 14.475 8.45056C14.3809 8.48456 14.2949 8.53624 14.2222 8.60255C14.1495 8.66885 14.0916 8.74841 14.0519 8.83648C14.0122 8.92456 13.9915 9.01935 13.991 9.11521L13.644 17.6867C13.6363 17.8761 13.7079 18.0607 13.8432 18.1998C13.9784 18.339 14.1661 18.4212 14.365 18.4286C14.5639 18.4359 14.7577 18.3677 14.9038 18.2389C15.0499 18.1101 15.1363 17.9313 15.144 17.7419L15.489 9.17044Z" fill="#44454B"/>
</svg>
