<svg width="24" height="24" viewBox="0 0 24 24" fill="none" xmlns="http://www.w3.org/2000/svg">
<path fill-rule="evenodd" clip-rule="evenodd" d="M7.42532 6V6.75H5.43832C4.47832 6.75 3.67432 7.474 3.57332 8.429L2.31032 20.429C2.28285 20.6903 2.31062 20.9545 2.39184 21.2045C2.47305 21.4544 2.60589 21.6844 2.78174 21.8797C2.95759 22.075 3.17253 22.2311 3.4126 22.338C3.65268 22.4448 3.91254 22.5 4.17532 22.5H19.6753C19.9381 22.5 20.198 22.4448 20.438 22.338C20.6781 22.2311 20.8931 22.075 21.0689 21.8797C21.2448 21.6844 21.3776 21.4544 21.4588 21.2045C21.54 20.9545 21.5678 20.6903 21.5403 20.429L20.2773 8.429C20.2289 7.96815 20.0115 7.54155 19.6671 7.23151C19.3227 6.92146 18.8757 6.74993 18.4123 6.75H16.4253V6C16.4253 4.80653 15.9512 3.66193 15.1073 2.81802C14.2634 1.97411 13.1188 1.5 11.9253 1.5C10.7318 1.5 9.58726 1.97411 8.74334 2.81802C7.89943 3.66193 7.42532 4.80653 7.42532 6ZM11.9253 3C11.1297 3 10.3666 3.31607 9.804 3.87868C9.24139 4.44129 8.92532 5.20435 8.92532 6V6.75H14.9253V6C14.9253 5.20435 14.6093 4.44129 14.0466 3.87868C13.484 3.31607 12.721 3 11.9253 3ZM8.92532 11.25C8.92532 12.0456 9.24139 12.8087 9.804 13.3713C10.3666 13.9339 11.1297 14.25 11.9253 14.25C12.721 14.25 13.484 13.9339 14.0466 13.3713C14.6093 12.8087 14.9253 12.0456 14.9253 11.25V10.5C14.9253 10.3011 15.0043 10.1103 15.145 9.96967C15.2856 9.82902 15.4764 9.75 15.6753 9.75C15.8742 9.75 16.065 9.82902 16.2057 9.96967C16.3463 10.1103 16.4253 10.3011 16.4253 10.5V11.25C16.4253 12.4435 15.9512 13.5881 15.1073 14.432C14.2634 15.2759 13.1188 15.75 11.9253 15.75C10.7318 15.75 9.58726 15.2759 8.74334 14.432C7.89943 13.5881 7.42532 12.4435 7.42532 11.25V10.5C7.42532 10.3011 7.50434 10.1103 7.64499 9.96967C7.78564 9.82902 7.97641 9.75 8.17532 9.75C8.37423 9.75 8.565 9.82902 8.70565 9.96967C8.8463 10.1103 8.92532 10.3011 8.92532 10.5V11.25Z" fill="#44454B"/>
</svg>
