<svg width="16" height="22" viewBox="0 0 16 22" fill="none" xmlns="http://www.w3.org/2000/svg">
<path d="M2.75 7C2.28587 7 1.84075 7.15804 1.51256 7.43934C1.18437 7.72064 1 8.10218 1 8.5V13.5C1 13.8978 1.18437 14.2794 1.51256 14.5607C1.84075 14.842 2.28587 15 2.75 15H8.58333C9.04746 15 9.49258 14.842 9.82077 14.5607C10.149 14.2794 10.3333 13.8978 10.3333 13.5V8.5C10.3333 8.10218 10.149 7.72064 9.82077 7.43934C9.49258 7.15804 9.04746 7 8.58333 7H2.75ZM15 7.5C14.9999 7.40117 14.9656 7.30459 14.9015 7.22245C14.8374 7.1403 14.7464 7.07628 14.6398 7.03848C14.5333 7.00067 14.4161 6.99077 14.303 7.01002C14.1899 7.02928 14.086 7.07683 14.0044 7.14667L11.6711 9.14667C11.5617 9.24034 11.5001 9.36744 11.5 9.5V12.5C11.5 12.6327 11.5614 12.76 11.6711 12.8533L14.0044 14.8533C14.086 14.9232 14.1899 14.9707 14.303 14.99C14.4161 15.0092 14.5333 14.9993 14.6398 14.9615C14.7464 14.9237 14.8374 14.8597 14.9015 14.7776C14.9656 14.6954 14.9999 14.5988 15 14.5V7.5Z" fill="#898D96"/>
</svg>
